# xmcd CD database file
#
# Track frame offsets:
#	150
#	13850
#	28538
#	44188
#	57188
#	70113
#	83813
#	98638
#	112025
#	127402
#
# Disc length: 1889 seconds
#
# Revision: 0
# Processed by: cddbd v1.5.2PL0 Copyright (c) Steve Scherf et al.
# Submitted via: CDex 1.51
#
DISCID=8c075f0a
DTITLE=Bessie Smith - Round Midnight
DYEAR=1900
DGENRE=Blues
TTITLE0=Alexander's Rag Time Band
TTITLE1=Gin House Blues
TTITLE2=Careless Love Blues
TTITLE3=Nobody's Blues But Mine
TTITLE4=Whats The Matter Now?
TTITLE5=Baby Doll
TTITLE6=Hard Time Blues
TTITLE7=After You've Gone
TTITLE8=At The Christmas Ball
TTITLE9=Young Woman's Blues
EXTD=
EXTT0=
EXTT1=
EXTT2=
EXTT3=
EXTT4=
EXTT5=
EXTT6=
EXTT7=
EXTT8=
EXTT9=
PLAYORDER=
